<svg xmlns="http://www.w3.org/2000/svg" viewBox="0 0 247.13 29.36"><defs><style>.cls-1{fill:#2d2d2d;}.cls-2{fill:#ea5526;}</style></defs><title>Logo</title><g id="Layer_2" data-name="Layer 2"><g id="Layer_2-2" data-name="Layer 2"><path class="cls-1" d="M13.4,5A6.17,6.17,0,0,0,8.11,7.61a12,12,0,0,0-1.88,7.16q0,9.54,7.17,9.55a22.48,22.48,0,0,0,7.28-1.51v5.08a20.15,20.15,0,0,1-7.85,1.47q-6.22,0-9.53-3.78T0,14.73A17.78,17.78,0,0,1,1.62,6.92,11.68,11.68,0,0,1,6.28,1.79,13.79,13.79,0,0,1,13.4,0a19.24,19.24,0,0,1,8.36,2l-2,4.92a31.59,31.59,0,0,0-3.22-1.32A9.54,9.54,0,0,0,13.4,5Z"/><path class="cls-1" d="M50.16,29h-6V16.64H32.81V29H26.76V.41h6.05V11.6H44.12V.41h6Z"/><path class="cls-1" d="M73.81,29H57.36V.41H73.81v5H63.42v6.27h9.67v5H63.42V24H73.81Z"/><path class="cls-1" d="M91.89,5A6.18,6.18,0,0,0,86.6,7.61a12,12,0,0,0-1.87,7.16q0,9.54,7.16,9.55a22.48,22.48,0,0,0,7.29-1.51v5.08a20.15,20.15,0,0,1-7.85,1.47q-6.24,0-9.53-3.78T78.5,14.73a17.78,17.78,0,0,1,1.62-7.81,11.68,11.68,0,0,1,4.66-5.13A13.75,13.75,0,0,1,91.89,0a19.21,19.21,0,0,1,8.36,2l-2,4.92a32.56,32.56,0,0,0-3.22-1.32A9.56,9.56,0,0,0,91.89,5Z"/><path class="cls-1" d="M128.22,29h-6.87l-7.48-12-2.56,1.84V29h-6.06V.41h6.06V13.48l2.38-3.36L121.43.41h6.71l-10,12.64Z"/><path class="cls-2" d="M154.3,29l-6.88-22.4h-.17c.24,4.56.37,7.6.37,9.12V29h-5.41V.41h8.24l6.76,21.84h.11L164.49.41h8.24V29h-5.64V15.45c0-.64,0-1.37,0-2.21s.11-3,.26-6.64h-.17L159.84,29Z"/><path class="cls-2" d="M197.4,29l-2.07-6.79H184.92L182.85,29h-6.52L186.41.29h7.4L203.93,29Zm-3.51-11.87c-1.92-6.16-3-9.64-3.24-10.45s-.41-1.44-.51-1.91q-.64,2.49-3.69,12.36Z"/><path class="cls-2" d="M218.54,29h-6.06V5.45h-7.75v-5h21.56v5h-7.75Z"/><path class="cls-2" d="M247.13,29H230.68V.41h16.45v5H236.74v6.27h9.67v5h-9.67V24h10.39Z"/></g></g></svg>